<svg xmlns="http://www.w3.org/2000/svg" width="20" height="18" fill="none" xmlns:v="https://vecta.io/nano"><path d="M1.25 7.75h14.825L11.538 2.3A1.25 1.25 0 0 1 11.7.537 1.25 1.25 0 0 1 13.463.7l6.25 7.5c.042.06.08.122.113.188 0 .063 0 .1.088.162A1.25 1.25 0 0 1 20 9a1.25 1.25 0 0 1-.087.45c0 .063 0 .1-.088.162a1.49 1.49 0 0 1-.113.188l-6.25 7.5a1.25 1.25 0 0 1-.963.45 1.25 1.25 0 0 1-1.108-.667 1.25 1.25 0 0 1-.088-.954 1.25 1.25 0 0 1 .233-.429l4.538-5.45H1.25a1.25 1.25 0 0 1-.884-.366A1.25 1.25 0 0 1 0 9a1.25 1.25 0 0 1 1.25-1.25z" fill="#fff"/></svg>