<svg xmlns="http://www.w3.org/2000/svg" width="30" height="30" fill="none" xmlns:v="https://vecta.io/nano"><path d="M23.75 13.75H8.925l4.538-5.45a1.25 1.25 0 0 0-.162-1.762 1.25 1.25 0 0 0-1.763.162l-6.25 7.5a1.48 1.48 0 0 0-.112.188c0 .063 0 .1-.087.163A1.25 1.25 0 0 0 5 15a1.25 1.25 0 0 0 .088.45c0 .063 0 .1.087.163a1.49 1.49 0 0 0 .112.188l6.25 7.5a1.25 1.25 0 0 0 .963.45 1.25 1.25 0 0 0 1.108-.667 1.25 1.25 0 0 0 .088-.954 1.25 1.25 0 0 0-.233-.429l-4.537-5.45H23.75A1.25 1.25 0 0 0 25 15a1.25 1.25 0 0 0-1.25-1.25z" fill="#f53838"/></svg>