<svg xmlns="http://www.w3.org/2000/svg" width="34" height="35" fill="none" xmlns:v="https://vecta.io/nano"><path d="M22.25 17.381a5.25 5.25 0 0 1-5.25 5.25 5.25 5.25 0 0 1-5.25-5.25c0-.299.031-.591.086-.875H10V23.5a.88.88 0 0 0 .88.88h12.241A.88.88 0 0 0 24 23.5v-6.995h-1.836c.054.284.086.576.086.875zm-5.25 3.5a3.5 3.5 0 0 0 2.475-1.026 3.5 3.5 0 0 0 1.025-2.476 3.5 3.5 0 0 0-1.026-2.475 3.5 3.5 0 0 0-2.476-1.025 3.5 3.5 0 0 0-3.5 3.502 3.5 3.5 0 0 0 3.502 3.5zm4.2-7.175h2.098c.139 0 .273-.055.372-.154s.154-.232.155-.371v-2.098c0-.14-.055-.274-.154-.373s-.233-.154-.372-.154H21.2c-.14 0-.274.056-.372.154s-.154.233-.154.373v2.098a.53.53 0 0 0 .527.525zM17 .581a16.8 16.8 0 0 0-16.8 16.8 16.8 16.8 0 0 0 16.8 16.8 16.8 16.8 0 0 0 11.879-4.921A16.8 16.8 0 0 0 33.8 17.381a16.8 16.8 0 0 0-4.921-11.879A16.8 16.8 0 0 0 17 .581zm8.75 23.606a1.95 1.95 0 0 1-1.944 1.944H10.194a1.95 1.95 0 0 1-1.944-1.944V10.575a1.95 1.95 0 0 1 1.944-1.944h13.612a1.95 1.95 0 0 1 1.944 1.944v13.612z" fill="#fff"/></svg>