<svg xmlns="http://www.w3.org/2000/svg" width="149" height="37" fill="none" xmlns:v="https://vecta.io/nano"><path d="M47.04 25.116c-.133 0-.247-.047-.34-.14s-.14-.207-.14-.34v-13.04c0-.147.047-.26.14-.34.093-.093.207-.14.34-.14h1.88c.147 0 .26.047.34.14.093.08.14.193.14.34v11.12h6.34c.147 0 .267.047.36.14s.14.207.14.34v1.44c0 .133-.047.247-.14.34s-.213.14-.36.14h-8.7zm13.921.2c-.68 0-1.307-.133-1.88-.4-.56-.28-1.007-.653-1.34-1.12-.32-.467-.48-.98-.48-1.54 0-.907.367-1.64 1.1-2.2s1.74-.94 3.02-1.14l2.74-.4v-.42c0-.573-.147-1.007-.44-1.3s-.76-.44-1.4-.44c-.44 0-.793.08-1.06.24a3.41 3.41 0 0 0-.66.5l-.32.32c-.053.16-.153.24-.3.24h-1.56c-.12 0-.227-.04-.32-.12-.08-.08-.12-.187-.12-.32.013-.333.173-.707.48-1.12.32-.427.807-.793 1.46-1.1.653-.32 1.46-.48 2.42-.48 1.573 0 2.72.353 3.44 1.06s1.08 1.633 1.08 2.78v6.28c0 .133-.047.247-.14.34-.08.093-.193.14-.34.14h-1.66c-.133 0-.247-.047-.34-.14s-.14-.207-.14-.34v-.78c-.293.427-.707.78-1.24 1.06-.533.267-1.2.4-2 .4zm.68-1.92c.733 0 1.333-.24 1.8-.72s.7-1.173.7-2.08v-.4l-2 .32c-1.533.24-2.3.753-2.3 1.54 0 .427.173.76.52 1 .36.227.787.34 1.28.34zm11.705 1.92c-1.013 0-1.86-.153-2.54-.46s-1.187-.66-1.52-1.06c-.32-.413-.48-.767-.48-1.06 0-.133.04-.24.12-.32.093-.08.2-.12.32-.12h1.64c.107 0 .2.053.28.16l.44.38a3.04 3.04 0 0 0 .8.48c.307.107.64.16 1 .16.533 0 .967-.1 1.3-.3a1.01 1.01 0 0 0 .5-.9c0-.267-.08-.48-.24-.64-.147-.173-.42-.327-.82-.46-.387-.147-.973-.307-1.76-.48-1.133-.24-1.973-.607-2.52-1.1-.533-.493-.8-1.147-.8-1.96 0-.533.16-1.033.48-1.5.32-.48.793-.867 1.42-1.16.64-.307 1.4-.46 2.28-.46.907 0 1.687.147 2.34.44.653.28 1.147.62 1.48 1.02.347.4.52.753.52 1.06a.44.44 0 0 1-.14.32c-.08.08-.18.12-.3.12h-1.5a.4.4 0 0 1-.34-.16l-.46-.36c-.2-.187-.427-.333-.68-.44s-.56-.16-.92-.16c-.493 0-.873.107-1.14.32s-.4.493-.4.84c0 .24.06.44.18.6.133.16.393.313.78.46.387.133.967.273 1.74.42 2.4.467 3.6 1.513 3.6 3.14 0 .947-.413 1.713-1.24 2.3-.813.587-1.953.88-3.42.88zm7.204-.2c-.133 0-.247-.047-.34-.14s-.14-.207-.14-.34v-13.24c0-.147.047-.26.14-.34.093-.093.207-.14.34-.14h1.68c.147 0 .26.047.34.14.093.08.14.193.14.34v13.24c0 .133-.047.247-.14.34-.08.093-.193.14-.34.14h-1.68zm9.313.2c-1.493 0-2.68-.427-3.56-1.28-.867-.853-1.327-2.067-1.38-3.64l-.02-.5c0-1.667.433-2.98 1.3-3.94.88-.96 2.093-1.44 3.64-1.44 1.587 0 2.807.48 3.66 1.44.867.96 1.3 2.24 1.3 3.84v.42c0 .133-.047.247-.14.34s-.213.14-.36.14h-6.64v.16c.027.747.227 1.367.6 1.86.387.48.913.72 1.58.72.76 0 1.38-.307 1.86-.92.12-.147.213-.233.28-.26.067-.04.18-.06.34-.06h1.76c.12 0 .22.033.3.1.093.067.14.16.14.28 0 .32-.193.7-.58 1.14-.373.427-.913.8-1.62 1.12s-1.527.48-2.46.48zm2.18-6.32v-.04c0-.787-.2-1.413-.6-1.88-.387-.48-.92-.72-1.6-.72s-1.213.24-1.6.72c-.387.467-.58 1.093-.58 1.88v.04h4.38zm8.842 6.32c-1.013 0-1.86-.153-2.54-.46s-1.187-.66-1.52-1.06c-.32-.413-.48-.767-.48-1.06 0-.133.04-.24.12-.32.093-.08.2-.12.32-.12h1.64c.107 0 .2.053.28.16l.44.38a3.04 3.04 0 0 0 .8.48 3.02 3.02 0 0 0 .999.16c.534 0 .967-.1 1.3-.3.334-.213.5-.513.5-.9 0-.267-.08-.48-.24-.64-.146-.173-.42-.327-.82-.46-.386-.147-.973-.307-1.76-.48-1.133-.24-1.973-.607-2.52-1.1-.533-.493-.8-1.147-.8-1.96 0-.533.16-1.033.48-1.5.32-.48.793-.867 1.42-1.16.64-.307 1.4-.46 2.279-.46.907 0 1.687.147 2.34.44.654.28 1.147.62 1.48 1.02.347.4.52.753.52 1.06 0 .12-.046.227-.14.32-.08.08-.18.12-.3.12h-1.5a.4.4 0 0 1-.34-.16l-.46-.36c-.2-.187-.426-.333-.68-.44s-.56-.16-.92-.16c-.493 0-.873.107-1.139.32s-.4.493-.4.84c0 .24.06.44.18.6.133.16.393.313.779.46.387.133.967.273 1.74.42 2.4.467 3.6 1.513 3.6 3.14 0 .947-.413 1.713-1.24 2.3-.813.587-1.953.88-3.42.88zm10.745-.2c-.227 0-.414-.053-.56-.16-.134-.12-.227-.267-.28-.44l-4.04-12.8-.04-.18c0-.107.04-.2.12-.28a.44.44 0 0 1 .32-.14h2.62c.2 0 .36.06.48.18.133.107.22.227.26.36l2.72 9.04 2.74-9.04c.04-.147.12-.273.24-.38.133-.107.3-.16.5-.16h2.62a.38.38 0 0 1 .3.14c.08.08.12.173.12.28a.76.76 0 0 1-.02.18l-4.06 12.8a.79.79 0 0 1-.28.44c-.134.107-.314.16-.54.16h-3.22zm10.445 0c-.133 0-.253-.047-.36-.14-.093-.107-.14-.227-.14-.36v-12.98c0-.147.047-.267.14-.36.093-.107.213-.16.36-.16h5.66c1.733 0 3.093.393 4.08 1.18s1.48 1.94 1.48 3.46-.493 2.66-1.48 3.42c-.987.747-2.347 1.12-4.08 1.12h-2.28v4.32c0 .133-.047.253-.14.36-.093.093-.213.14-.36.14h-2.88zm5.56-7.68c.547 0 .973-.14 1.28-.42.32-.293.48-.72.48-1.28 0-.52-.147-.94-.44-1.26-.28-.32-.72-.48-1.32-.48h-2.24v3.44h2.24zm8.014 7.68c-.133 0-.253-.047-.36-.14-.093-.107-.14-.227-.14-.36v-12.98c0-.147.047-.267.14-.36.093-.107.213-.16.36-.16h2.26a.73.73 0 0 1 .68.38l4.72 7.46v-7.32c0-.147.047-.267.14-.36.093-.107.213-.16.36-.16h2.54c.147 0 .267.053.36.16.093.093.14.213.14.36v12.96a.56.56 0 0 1-.14.38c-.093.093-.213.14-.36.14h-2.26a.73.73 0 0 1-.68-.38l-4.7-7.16v7.04c0 .147-.053.267-.16.36-.093.093-.213.14-.36.14h-2.54z" fill="#0b132a"/><path d="M31.147 13.648l-.022-.022L17.501 0 3.88 13.621l-.026.026C1.771 15.742.448 18.473.095 21.405s.285 5.899 1.812 8.428 3.855 4.475 6.614 5.528 5.792 1.155 8.615.287a1.25 1.25 0 0 1 .729 0c2.823.868 5.855.767 8.615-.287s5.087-2.999 6.614-5.528 2.164-5.495 1.812-8.427-1.675-5.663-3.758-7.758zM8.723 22.63c-.066.066-.119.145-.155.232s-.054.179-.054.273a13.22 13.22 0 0 0 1.965 6.803c.029.046.042.101.038.155s-.025.106-.06.148-.083.071-.136.084a.26.26 0 0 1-.159-.012 7.92 7.92 0 0 1-2.536-1.707c-1.489-1.489-2.326-3.508-2.327-5.614s.833-4.126 2.32-5.617l9.882-9.882 9.882 9.882c1.487 1.491 2.322 3.511 2.32 5.617s-.838 4.125-2.327 5.614a7.92 7.92 0 0 1-2.536 1.707.26.26 0 0 1-.295-.073c-.035-.042-.056-.093-.06-.148s.009-.109.038-.155a13.22 13.22 0 0 0 1.966-6.802c0-.094-.019-.187-.055-.273s-.089-.165-.155-.232l-4.674-4.958a.26.26 0 0 0-.332 0c-.047.039-.078.093-.089.152s0 .121.029.174c1.815 3.285.254 8.004-2.349 10.607l-.014.014a1.92 1.92 0 0 1-2.699-.001l-.013-.013c-2.604-2.604-4.165-7.322-2.349-10.607.03-.053.04-.114.029-.174s-.042-.114-.089-.152a.26.26 0 0 0-.332 0L8.723 22.63z" fill="#f53838"/></svg>