<svg xmlns="http://www.w3.org/2000/svg" width="35" height="35" fill="none" xmlns:v="https://vecta.io/nano"><path d="M17.4.581C8.121.581.6 8.102.6 17.381s7.522 16.8 16.8 16.8 16.8-7.521 16.8-16.8S26.679.581 17.4.581zm6.834 13.762a8.78 8.78 0 0 1 .009.427c0 4.375-3.327 9.417-9.413 9.417-1.799.003-3.559-.514-5.071-1.488.257.032.521.044.789.044 1.55 0 2.977-.527 4.109-1.416-.69-.013-1.359-.242-1.913-.654s-.966-.986-1.178-1.642c.495.094 1.006.075 1.493-.058a3.31 3.31 0 0 1-2.655-3.244v-.04c.446.247.957.397 1.5.415a3.31 3.31 0 0 1-1.389-2.007c-.19-.822-.059-1.685.366-2.413.831 1.022 1.868 1.858 3.043 2.454a9.41 9.41 0 0 0 3.777 1.006 3.31 3.31 0 0 1 1.659-3.676 3.31 3.31 0 0 1 3.979.658c.741-.146 1.451-.418 2.1-.803-.247.767-.764 1.418-1.454 1.832a6.65 6.65 0 0 0 1.901-.523 6.71 6.71 0 0 1-1.65 1.713z" fill="#fff"/></svg>